<svg width="24" height="21" viewBox="0 0 24 21" fill="none" xmlns="http://www.w3.org/2000/svg">
<path d="M15.24 19.4862H15.11C10.67 19.4862 8.53 17.9549 8.16 14.5249C8.12 14.1662 8.42 13.8424 8.84 13.8074C9.24 13.7724 9.62 14.0437 9.66 14.4024C9.95 17.1499 11.43 18.1737 15.12 18.1737H15.25C19.32 18.1737 20.76 16.9137 20.76 13.3524V7.64742C20.76 4.08617 19.32 2.82617 15.25 2.82617H15.12C11.41 2.82617 9.93 3.86742 9.66 6.66742C9.61 7.02617 9.26 7.29742 8.84 7.26242C8.42 7.23617 8.12 6.91242 8.15 6.55367C8.49 3.07117 10.64 1.51367 15.11 1.51367H15.24C20.15 1.51367 22.25 3.35117 22.25 7.64742V13.3524C22.25 17.6487 20.15 19.4862 15.24 19.4862Z" fill="#129B29"/>
<path d="M15 11.1562H3.62C3.21 11.1562 2.87 10.8587 2.87 10.5C2.87 10.1413 3.21 9.84375 3.62 9.84375H15C15.41 9.84375 15.75 10.1413 15.75 10.5C15.75 10.8587 15.41 11.1562 15 11.1562Z" fill="#129B29"/>
<path d="M5.85 14.0879C5.66 14.0879 5.47 14.0266 5.32 13.8954L1.97 10.9641C1.68 10.7104 1.68 10.2904 1.97 10.0366L5.32 7.10535C5.61 6.8516 6.09 6.8516 6.38 7.10535C6.67 7.3591 6.67 7.7791 6.38 8.03285L3.56 10.5004L6.38 12.9679C6.67 13.2216 6.67 13.6416 6.38 13.8954C6.24 14.0266 6.04 14.0879 5.85 14.0879Z" fill="#129B29"/>
</svg>
